<svg width="824" height="157" viewBox="0 0 824 157" fill="none" xmlns="http://www.w3.org/2000/svg">
<path d="M44.16 134.946L76.6645 3.17773H93.0201L60.7228 134.946H44.16ZM43.5389 134.946L11.0344 3.17773H27.5972L59.8947 134.946H43.5389ZM0.682617 134.946V3.17773H19.5228V134.946H0.682617ZM84.7387 134.946V3.17773H103.579V134.946H84.7387Z" fill="white"/>
<path d="M111.899 134.945V40.5582H130.739V134.945H111.899ZM121.216 28.0356C117.765 28.0356 114.866 26.9765 112.52 24.8582C110.174 22.74 109 20.1233 109 17.0082C109 13.8931 110.174 11.2765 112.52 9.15823C114.866 6.91537 117.765 5.79395 121.216 5.79395C124.666 5.79395 127.565 6.91537 129.911 9.15823C132.395 11.2765 133.638 13.8931 133.638 17.0082C133.638 20.1233 132.395 22.74 129.911 24.8582C127.565 26.9765 124.666 28.0356 121.216 28.0356Z" fill="white"/>
<path d="M212.418 40.7456H193.578V3.17773H212.418V40.7456ZM193.578 134.946V40.5587H212.418V134.946H193.578ZM135.401 104.854V70.6503H154.241V104.854H135.401ZM154.241 70.6503H135.401C135.401 64.4202 136.85 58.8131 139.749 53.8289C142.647 48.8448 146.581 44.9198 151.55 42.0539C156.657 39.1881 162.454 37.7551 168.941 37.7551L173.702 52.8944C168.044 52.8944 163.351 54.5765 159.624 57.9408C156.036 61.1805 154.241 65.417 154.241 70.6503ZM201.859 71.0242H193.578C193.578 65.6662 191.714 61.3051 187.988 57.9408C184.261 54.5765 179.499 52.8944 173.702 52.8944L168.941 37.7551C175.152 37.7551 180.742 39.1881 185.71 42.0539C190.818 44.9198 194.751 48.9071 197.511 54.0158C200.41 59 201.859 64.6694 201.859 71.0242ZM154.241 104.854C154.241 110.087 156.036 114.386 159.624 117.75C163.351 120.99 168.044 122.61 173.702 122.61L168.941 137.749C162.454 137.749 156.657 136.316 151.55 133.45C146.581 130.585 142.647 126.66 139.749 121.675C136.85 116.691 135.401 111.084 135.401 104.854H154.241ZM201.859 104.293C201.859 110.648 200.41 116.38 197.511 121.488C194.751 126.473 190.818 130.46 185.71 133.45C180.742 136.316 175.152 137.749 168.941 137.749L173.702 122.61C179.499 122.61 184.261 120.928 187.988 117.563C191.714 114.199 193.578 109.775 193.578 104.293H201.859Z" fill="white"/>
<path d="M221 135V3H239V135H221Z" fill="white"/>
<path d="M303.116 134.945V70.6501H321.956V134.945H303.116ZM277.858 137.749L279.307 123.731C284.276 123.731 288.485 122.61 291.936 120.367C295.524 118.124 298.284 114.822 300.217 110.461C302.149 106.1 303.116 100.929 303.116 94.9477L312.432 94.5739C312.432 103.047 310.914 110.523 307.878 117.003C304.841 123.482 300.7 128.591 295.456 132.329C290.348 135.942 284.483 137.749 277.858 137.749ZM277.858 137.749C271.647 137.749 265.987 136.441 260.881 133.824C255.774 131.207 251.702 127.656 248.666 123.17C245.629 118.56 244.111 113.451 244.111 107.844L261.916 107.283C261.916 112.018 263.641 115.943 267.092 119.058C270.68 122.174 274.752 123.731 279.307 123.731L277.858 137.749ZM244.111 107.844C244.111 101.988 245.698 96.8788 248.873 92.518C252.185 88.0323 256.602 84.4811 262.123 81.8644C267.643 79.2477 273.924 77.9394 280.963 77.9394L281.998 91.0227C276.201 91.0227 271.37 92.58 267.506 95.6954C263.779 98.6858 261.916 102.549 261.916 107.283L244.111 107.844ZM281.998 91.0227L280.963 77.9394H312.847V91.0227H281.998ZM303.116 94.9477V70.837H312.432V94.5739L303.116 94.9477ZM321.956 71.0239H303.116C303.116 65.5414 301.253 61.0557 297.526 57.5668C293.937 54.0779 289.245 52.3335 283.448 52.3335V37.7549C290.901 37.7549 297.456 39.1878 303.116 42.0537C308.913 44.9195 313.468 48.9069 316.78 54.0156C320.23 58.9998 321.956 64.6692 321.956 71.0239ZM263.986 68.7811L246.595 65.6037C247.423 59.9966 249.494 55.137 252.806 51.0251C256.256 46.9132 260.604 43.6736 265.85 41.3061C271.232 38.9386 277.167 37.7549 283.655 37.7549V52.3335C278.547 52.3335 274.131 53.7041 270.404 56.4454C266.815 59.062 264.676 63.1739 263.986 68.7811Z" fill="white"/>
<path d="M324.417 134.945V40.5585H343.258V134.945H324.417ZM382.594 134.945V70.6501H401.435V134.945H382.594ZM382.594 70.6501C382.594 65.4168 380.801 61.1803 377.211 57.9406C373.623 54.5763 369 52.8942 363.34 52.8942L368.102 37.7549C374.451 37.7549 380.11 39.1878 385.079 42.0537C390.186 44.9195 394.188 48.8445 397.087 53.8287C399.985 58.8128 401.435 64.42 401.435 70.6501H382.594ZM334.976 71.0239C334.976 64.6692 336.426 58.9998 339.324 54.0156C342.223 48.9069 346.156 44.9195 351.125 42.0537C356.094 39.1878 361.753 37.7549 368.102 37.7549L363.34 52.8942C357.406 52.8942 352.574 54.5763 348.848 57.9406C345.121 61.3049 343.258 65.666 343.258 71.0239H334.976Z" fill="white"/>
<path d="M479.169 40.7456H460.329V3.17773H479.169V40.7456ZM460.329 134.946V40.5587H479.169V134.946H460.329ZM402.152 104.854V70.6503H420.993V104.854H402.152ZM420.993 70.6503H402.152C402.152 64.4202 403.602 58.8131 406.5 53.8289C409.399 48.8448 413.332 44.9198 418.301 42.0539C423.408 39.1881 429.205 37.7551 435.692 37.7551L440.454 52.8944C434.795 52.8944 430.102 54.5765 426.375 57.9408C422.787 61.1805 420.993 65.417 420.993 70.6503ZM468.611 71.0242H460.329C460.329 65.6662 458.466 61.3051 454.739 57.9408C451.013 54.5765 446.251 52.8944 440.454 52.8944L435.692 37.7551C441.903 37.7551 447.493 39.1881 452.462 42.0539C457.569 44.9198 461.503 48.9071 464.263 54.0158C467.161 59 468.611 64.6694 468.611 71.0242ZM420.993 104.854C420.993 110.087 422.787 114.386 426.375 117.75C430.102 120.99 434.795 122.61 440.454 122.61L435.692 137.749C429.205 137.749 423.408 136.316 418.301 133.45C413.332 130.585 409.399 126.66 406.5 121.675C403.602 116.691 402.152 111.084 402.152 104.854H420.993ZM468.611 104.293C468.611 110.648 467.161 116.38 464.263 121.488C461.503 126.473 457.569 130.46 452.462 133.45C447.493 136.316 441.903 137.749 435.692 137.749L440.454 122.61C446.251 122.61 451.013 120.928 454.739 117.563C458.466 114.199 460.329 109.775 460.329 104.293H468.611Z" fill="white"/>
<path d="M497.506 17.9432V3.17773H518.623V17.9432H497.506ZM497.506 84.2944V69.5289H518.623V84.2944H497.506ZM540.569 49.3432V38.1289H559.409V49.3432H540.569ZM559.409 38.1289H540.569C540.569 31.6495 538.567 26.6655 534.565 23.1765C530.7 19.6876 525.317 17.9432 518.416 17.9432V3.17773C526.559 3.17773 533.668 4.67297 539.741 7.66345C545.952 10.5293 550.782 14.6412 554.233 19.9992C557.684 25.2325 559.409 31.2757 559.409 38.1289ZM559.409 49.1563C559.409 56.1341 557.684 62.2396 554.233 67.473C550.782 72.7063 545.952 76.8182 539.741 79.8087C533.668 82.7992 526.559 84.2944 518.416 84.2944V69.5289C525.317 69.5289 530.7 67.7222 534.565 64.1087C538.567 60.4952 540.569 55.5111 540.569 49.1563H559.409ZM485.291 134.946V3.17773H504.131V134.946H485.291Z" fill="white"/>
<path d="M561.53 134.945V40.5582H580.37V134.945H561.53ZM570.846 28.0356C567.396 28.0356 564.497 26.9765 562.151 24.8582C559.804 22.74 558.631 20.1233 558.631 17.0082C558.631 13.8931 559.804 11.2765 562.151 9.15823C564.497 6.91537 567.396 5.79395 570.846 5.79395C574.296 5.79395 577.195 6.91537 579.542 9.15823C582.026 11.2765 583.269 13.8931 583.269 17.0082C583.269 20.1233 582.026 22.74 579.542 24.8582C577.195 26.9765 574.296 28.0356 570.846 28.0356Z" fill="white"/>
<path d="M639.747 134.946L579.5 40.5586H599.582L659.83 134.946H639.747ZM579.5 134.946L609.727 87.6586H629.603L599.582 134.946H579.5ZM609.727 87.6586L639.747 40.5586H659.83L629.603 87.6586H609.727Z" fill="white"/>
<path d="M655.653 92.8918V80.743H726.252V92.8918H655.653ZM687.743 137.936V123.17H688.779V137.936H687.743ZM649.649 101.489V74.0144H668.489V101.489H649.649ZM707.412 80.743V71.0239H726.252V80.743H707.412ZM726.252 71.0239H707.412C707.412 65.5414 705.548 61.0557 701.822 57.5668C698.233 54.0779 693.54 52.3335 687.743 52.3335V37.7549C695.197 37.7549 701.752 39.1878 707.412 42.0537C713.209 44.9195 717.763 48.9069 721.076 54.0156C724.526 58.9997 726.252 64.6692 726.252 71.0239ZM708.24 106.91L725.838 110.087C725.01 115.445 722.87 120.242 719.42 124.479C715.969 128.715 711.621 132.017 706.377 134.385C701.131 136.752 695.265 137.936 688.779 137.936V123.17C693.747 123.17 698.026 121.862 701.615 119.245C705.341 116.504 707.549 112.392 708.24 106.91ZM649.649 74.2013C649.649 67.0989 651.305 60.8688 654.618 55.5108C658.068 50.0283 662.623 45.7295 668.282 42.6144C674.079 39.3747 680.635 37.7549 687.95 37.7549V52.3335C681.877 52.3335 677.115 54.2648 673.665 58.1275C670.214 61.8656 668.489 67.2236 668.489 74.2013H649.649ZM649.649 101.489H668.489C668.489 108.343 670.214 113.7 673.665 117.563C677.115 121.301 681.877 123.17 687.95 123.17V137.936C680.635 137.936 674.079 136.379 668.282 133.263C662.623 130.024 658.068 125.662 654.618 120.18C651.305 114.698 649.649 108.467 649.649 101.489Z" fill="white"/>
<path d="M729 135V3H748V135H729Z" fill="white"/>
<path d="M804.929 110.647C804.929 107.532 803.687 104.978 801.202 102.984C798.718 100.866 795.474 98.997 791.471 97.3769C787.607 95.6327 783.466 93.8878 779.049 92.1436C774.77 90.3994 770.63 88.4055 766.627 86.1626C762.762 83.7949 759.588 80.8672 757.104 77.3781C754.619 73.7646 753.377 69.4035 753.377 64.2948C753.377 64.2948 753.929 64.2948 755.033 64.2948C756.276 64.2948 757.793 64.2948 759.588 64.2948C761.52 64.2948 763.383 64.2948 765.178 64.2948C766.972 64.2948 768.491 64.2948 769.733 64.2948C770.975 64.2948 771.596 64.2948 771.596 64.2948C771.596 67.4099 772.838 70.0265 775.323 72.1448C777.807 74.1384 780.981 75.9449 784.846 77.565C788.849 79.1851 793.058 80.9293 797.476 82.7983C801.892 84.5425 806.033 86.5985 809.898 88.9662C813.762 91.3339 816.937 94.2616 819.421 97.7507C822.043 101.115 823.355 105.414 823.355 110.647C823.355 110.647 822.734 110.647 821.492 110.647C820.249 110.647 818.662 110.647 816.73 110.647C814.935 110.647 813.141 110.647 811.347 110.647C809.552 110.647 808.034 110.647 806.792 110.647C805.55 110.647 804.929 110.647 804.929 110.647ZM787.331 137.748V122.983C792.437 122.983 796.647 121.861 799.96 119.619C803.272 117.251 804.929 114.26 804.929 110.647H823.355C823.355 115.88 821.767 120.553 818.593 124.665C815.556 128.777 811.347 132.016 805.964 134.384C800.581 136.627 794.37 137.748 787.331 137.748ZM753.377 64.2948C753.377 59.1861 754.757 54.638 757.518 50.6507C760.416 46.5388 764.419 43.3614 769.526 41.1186C774.632 38.7511 780.292 37.5674 786.503 37.5674V52.3329C782.224 52.3329 778.635 53.4543 775.737 55.6971C772.976 57.94 771.596 60.8058 771.596 64.2948H753.377ZM767.662 106.722C768.352 112.204 770.561 116.316 774.288 119.058C778.014 121.675 782.362 122.983 787.331 122.983V137.748C780.981 137.748 775.116 136.565 769.733 134.197C764.35 131.829 759.933 128.528 756.483 124.291C753.17 120.054 751.1 115.258 750.271 109.9L767.662 106.722ZM805.964 68.5936C805.273 62.9864 803.065 58.8745 799.339 56.2579C795.75 53.6412 791.471 52.3329 786.503 52.3329V37.5674C792.989 37.5674 798.855 38.7511 804.101 41.1186C809.345 43.4861 813.693 46.788 817.144 51.0245C820.594 55.1364 822.734 59.9337 823.562 65.4162L805.964 68.5936Z" fill="white"/>
<path d="M479.136 142.013H303.111V156.416H479.136V142.013Z" fill="white"/>
</svg>
