<svg width="158" height="31" viewBox="0 0 158 31" fill="none" xmlns="http://www.w3.org/2000/svg">
<g clip-path="url(#clip0_323_28)">
<path d="M8.43815 26.286L14.6492 1.10742H17.7745L11.603 26.286H8.43815ZM8.31947 26.286L2.10841 1.10742H5.27328L11.4448 26.286H8.31947ZM0.130371 26.286V1.10742H3.73041V26.286H0.130371ZM16.192 26.286V1.10742H19.7921V26.286H16.192Z" fill="white"/>
<path d="M21.382 26.286V8.25028H24.982V26.286H21.382ZM23.1622 5.85742C22.5028 5.85742 21.949 5.65504 21.5007 5.25028C21.0524 4.84552 20.8281 4.34552 20.8281 3.75028C20.8281 3.15504 21.0524 2.65504 21.5007 2.25028C21.949 1.82171 22.5028 1.60742 23.1622 1.60742C23.8216 1.60742 24.3755 1.82171 24.8238 2.25028C25.2985 2.65504 25.5359 3.15504 25.5359 3.75028C25.5359 4.34552 25.2985 4.84552 24.8238 5.25028C24.3755 5.65504 23.8216 5.85742 23.1622 5.85742Z" fill="white"/>
<path d="M40.5894 8.28599H36.9894V1.10742H40.5894V8.28599ZM36.9894 26.286V8.25028H40.5894V26.286H36.9894ZM25.8728 20.536V14.0003H29.4728V20.536H25.8728ZM29.4728 14.0003H25.8728C25.8728 12.8098 26.1497 11.7384 26.7036 10.786C27.2574 9.83361 28.0091 9.08361 28.9585 8.53599C29.9344 7.98838 31.0421 7.71456 32.2817 7.71456L33.1916 10.6074C32.1103 10.6074 31.2135 10.9288 30.5014 11.5717C29.8158 12.1907 29.4728 13.0003 29.4728 14.0003ZM38.5718 14.0717H36.9894C36.9894 13.0479 36.6334 12.2146 35.9213 11.5717C35.2092 10.9288 34.2993 10.6074 33.1916 10.6074L32.2817 7.71456C33.4685 7.71456 34.5366 7.98838 35.4861 8.53599C36.462 9.08361 37.2136 9.84552 37.7411 10.8217C38.2949 11.7741 38.5718 12.8574 38.5718 14.0717ZM29.4728 20.536C29.4728 21.536 29.8158 22.3574 30.5014 23.0003C31.2135 23.6193 32.1103 23.9288 33.1916 23.9288L32.2817 26.8217C31.0421 26.8217 29.9344 26.5478 28.9585 26.0003C28.0091 25.4527 27.2574 24.7027 26.7036 23.7503C26.1497 22.7978 25.8728 21.7264 25.8728 20.536H29.4728ZM38.5718 20.4288C38.5718 21.6431 38.2949 22.7384 37.7411 23.7146C37.2136 24.667 36.462 25.4288 35.4861 26.0003C34.5366 26.5478 33.4685 26.8217 32.2817 26.8217L33.1916 23.9288C34.2993 23.9288 35.2092 23.6074 35.9213 22.9646C36.6334 22.3217 36.9894 21.4764 36.9894 20.4288H38.5718Z" fill="white"/>
<path d="M42.2292 26.2971V1.07422H45.6687V26.2971H42.2292Z" fill="white"/>
<path d="M57.9204 26.2863V14.0006H61.5204V26.2863H57.9204ZM53.0939 26.822L53.3709 24.1434C54.3203 24.1434 55.1247 23.9291 55.7841 23.5006C56.4697 23.072 56.9972 22.441 57.3665 21.6077C57.7357 20.7744 57.9204 19.7863 57.9204 18.6434L59.7006 18.572C59.7006 20.191 59.4104 21.6196 58.8303 22.8577C58.25 24.0958 57.4588 25.072 56.4566 25.7863C55.4807 26.4767 54.3599 26.822 53.0939 26.822ZM53.0939 26.822C51.9071 26.822 50.8257 26.572 49.8499 26.072C48.8741 25.572 48.096 24.8934 47.5158 24.0363C46.9356 23.1553 46.6455 22.1791 46.6455 21.1077L50.0477 21.0006C50.0477 21.9053 50.3774 22.6553 51.0368 23.2506C51.7224 23.8458 52.5005 24.1434 53.3709 24.1434L53.0939 26.822ZM46.6455 21.1077C46.6455 19.9887 46.9487 19.0124 47.5554 18.1791C48.1884 17.322 49.0323 16.6434 50.0873 16.1434C51.1422 15.6434 52.3423 15.3934 53.6873 15.3934L53.8851 17.8934C52.7774 17.8934 51.8542 18.191 51.1159 18.7863C50.4038 19.3577 50.0477 20.0958 50.0477 21.0006L46.6455 21.1077ZM53.8851 17.8934L53.6873 15.3934H59.7797V17.8934H53.8851ZM57.9204 18.6434V14.0363H59.7006V18.572L57.9204 18.6434ZM61.5204 14.072H57.9204C57.9204 13.0244 57.5643 12.1672 56.8522 11.5006C56.1664 10.8339 55.2698 10.5006 54.1621 10.5006V7.71484C55.5863 7.71484 56.8389 7.98866 57.9204 8.53627C59.0281 9.08389 59.8984 9.8458 60.5314 10.822C61.1906 11.7744 61.5204 12.8577 61.5204 14.072ZM50.4434 13.6434L47.1202 13.0363C47.2785 11.9648 47.6741 11.0363 48.3071 10.2506C48.9663 9.46484 49.7971 8.8458 50.7994 8.39342C51.828 7.94103 52.962 7.71484 54.2016 7.71484V10.5006C53.2257 10.5006 52.3818 10.7625 51.6697 11.2863C50.9839 11.7863 50.5752 12.572 50.4434 13.6434Z" fill="white"/>
<path d="M61.9907 26.2863V8.25056H65.5908V26.2863H61.9907ZM73.1073 26.2863V14.0006H76.7074V26.2863H73.1073ZM73.1073 14.0006C73.1073 13.0006 72.7646 12.191 72.0787 11.572C71.3931 10.9291 70.5096 10.6077 69.4282 10.6077L70.3381 7.71484C71.5513 7.71484 72.6326 7.98866 73.5821 8.53627C74.5579 9.08389 75.3227 9.83389 75.8766 10.7863C76.4304 11.7387 76.7074 12.8101 76.7074 14.0006H73.1073ZM64.0083 14.072C64.0083 12.8577 64.2853 11.7744 64.8391 10.822C65.393 9.8458 66.1446 9.08389 67.0941 8.53627C68.0435 7.98866 69.125 7.71484 70.3381 7.71484L69.4282 10.6077C68.2942 10.6077 67.371 10.9291 66.6589 11.572C65.9468 12.2148 65.5908 13.0482 65.5908 14.072H64.0083Z" fill="white"/>
<path d="M91.5611 8.28599H87.9611V1.10742H91.5611V8.28599ZM87.9611 26.286V8.25028H91.5611V26.286H87.9611ZM76.8445 20.536V14.0003H80.4445V20.536H76.8445ZM80.4445 14.0003H76.8445C76.8445 12.8098 77.1214 11.7384 77.6753 10.786C78.2291 9.83361 78.9808 9.08361 79.9302 8.53599C80.9061 7.98838 82.0138 7.71456 83.2533 7.71456L84.1632 10.6074C83.082 10.6074 82.1852 10.9288 81.4731 11.5717C80.7874 12.1907 80.4445 13.0003 80.4445 14.0003ZM89.5435 14.0717H87.9611C87.9611 13.0479 87.605 12.2146 86.8929 11.5717C86.1808 10.9288 85.2709 10.6074 84.1632 10.6074L83.2533 7.71456C84.4402 7.71456 85.5083 7.98838 86.4578 8.53599C87.4337 9.08361 88.1853 9.84552 88.7127 10.8217C89.2666 11.7741 89.5435 12.8574 89.5435 14.0717ZM80.4445 20.536C80.4445 21.536 80.7874 22.3574 81.4731 23.0003C82.1852 23.6193 83.082 23.9288 84.1632 23.9288L83.2533 26.8217C82.0138 26.8217 80.9061 26.5478 79.9302 26.0003C78.9808 25.4527 78.2291 24.7027 77.6753 23.7503C77.1214 22.7978 76.8445 21.7264 76.8445 20.536H80.4445ZM89.5435 20.4288C89.5435 21.6431 89.2666 22.7384 88.7127 23.7146C88.1853 24.667 87.4337 25.4288 86.4578 26.0003C85.5083 26.5478 84.4402 26.8217 83.2533 26.8217L84.1632 23.9288C85.2709 23.9288 86.1808 23.6074 86.8929 22.9646C87.605 22.3217 87.9611 21.4764 87.9611 20.4288H89.5435Z" fill="white"/>
<path d="M95.0648 3.92885V1.10742H99.1V3.92885H95.0648ZM95.0648 16.6074V13.786H99.1V16.6074H95.0648ZM103.293 9.92885V7.78599H106.894V9.92885H103.293ZM106.894 7.78599H103.293C103.293 6.54789 102.911 5.59552 102.146 4.92885C101.408 4.26218 100.379 3.92885 99.0605 3.92885V1.10742C100.616 1.10742 101.975 1.39314 103.135 1.96456C104.322 2.51218 105.245 3.29789 105.904 4.32171C106.564 5.32171 106.894 6.47646 106.894 7.78599ZM106.894 9.89314C106.894 11.2265 106.564 12.3931 105.904 13.3931C105.245 14.3931 104.322 15.1789 103.135 15.7503C101.975 16.3217 100.616 16.6074 99.0605 16.6074V13.786C100.379 13.786 101.408 13.4408 102.146 12.7503C102.911 12.0598 103.293 11.1074 103.293 9.89314H106.894ZM92.7307 26.286V1.10742H96.3308V26.286H92.7307Z" fill="white"/>
<path d="M107.299 26.286V8.25028H110.899V26.286H107.299ZM109.079 5.85742C108.42 5.85742 107.866 5.65504 107.417 5.25028C106.969 4.84552 106.745 4.34552 106.745 3.75028C106.745 3.15504 106.969 2.65504 107.417 2.25028C107.866 1.82171 108.42 1.60742 109.079 1.60742C109.738 1.60742 110.292 1.82171 110.741 2.25028C111.215 2.65504 111.453 3.15504 111.453 3.75028C111.453 4.34552 111.215 4.84552 110.741 5.25028C110.292 5.65504 109.738 5.85742 109.079 5.85742Z" fill="white"/>
<path d="M122.245 26.2857L110.732 8.25H114.57L126.082 26.2857H122.245ZM110.732 26.2857L116.508 17.25H120.306L114.57 26.2857H110.732ZM116.508 17.25L122.245 8.25H126.082L120.306 17.25H116.508Z" fill="white"/>
<path d="M125.284 18.2506V15.9291H138.774V18.2506H125.284ZM131.416 26.8577V24.0363H131.614V26.8577H131.416ZM124.137 19.8934V14.6434H127.737V19.8934H124.137ZM135.174 15.9291V14.072H138.774V15.9291H135.174ZM138.774 14.072H135.174C135.174 13.0244 134.818 12.1672 134.106 11.5006C133.42 10.8339 132.524 10.5006 131.416 10.5006V7.71484C132.84 7.71484 134.093 7.98866 135.174 8.53627C136.282 9.08389 137.152 9.8458 137.785 10.822C138.444 11.7744 138.774 12.8577 138.774 14.072ZM135.332 20.9291L138.695 21.5363C138.537 22.5601 138.128 23.4767 137.469 24.2863C136.809 25.0958 135.979 25.7267 134.976 26.1791C133.974 26.6316 132.853 26.8577 131.614 26.8577V24.0363C132.563 24.0363 133.381 23.7863 134.066 23.2863C134.779 22.7624 135.2 21.9767 135.332 20.9291ZM124.137 14.6791C124.137 13.322 124.453 12.1315 125.086 11.1077C125.745 10.0601 126.616 9.23866 127.697 8.64342C128.805 8.02437 130.058 7.71484 131.455 7.71484V10.5006C130.295 10.5006 129.385 10.8696 128.726 11.6077C128.066 12.322 127.737 13.3458 127.737 14.6791H124.137ZM124.137 19.8934H127.737C127.737 21.203 128.066 22.2267 128.726 22.9648C129.385 23.6791 130.295 24.0363 131.455 24.0363V26.8577C130.058 26.8577 128.805 26.5601 127.697 25.9648C126.616 25.3458 125.745 24.5124 125.086 23.4648C124.453 22.4173 124.137 21.2267 124.137 19.8934Z" fill="white"/>
<path d="M139.299 26.2971V1.07422H142.93V26.2971H139.299Z" fill="white"/>
<path d="M153.808 21.642C153.808 21.0467 153.571 20.5587 153.096 20.1777C152.621 19.773 152.001 19.4159 151.237 19.1063C150.498 18.773 149.707 18.4396 148.863 18.1063C148.045 17.773 147.254 17.392 146.489 16.9634C145.751 16.511 145.144 15.9516 144.67 15.2849C144.195 14.5944 143.957 13.7611 143.957 12.7849C143.957 12.7849 144.063 12.7849 144.274 12.7849C144.511 12.7849 144.801 12.7849 145.144 12.7849C145.513 12.7849 145.869 12.7849 146.212 12.7849C146.555 12.7849 146.845 12.7849 147.083 12.7849C147.32 12.7849 147.439 12.7849 147.439 12.7849C147.439 13.3801 147.676 13.8801 148.151 14.2849C148.626 14.6658 149.232 15.011 149.971 15.3206C150.735 15.6302 151.54 15.9634 152.384 16.3206C153.228 16.6539 154.019 17.0467 154.758 17.4992C155.496 17.9516 156.103 18.511 156.577 19.1777C157.078 19.8206 157.329 20.642 157.329 21.642C157.329 21.642 157.21 21.642 156.973 21.642C156.736 21.642 156.432 21.642 156.063 21.642C155.72 21.642 155.377 21.642 155.034 21.642C154.692 21.642 154.401 21.642 154.164 21.642C153.927 21.642 153.808 21.642 153.808 21.642ZM150.445 26.8206V23.9992C151.421 23.9992 152.226 23.7849 152.859 23.3563C153.492 22.9039 153.808 22.3324 153.808 21.642H157.329C157.329 22.642 157.026 23.5349 156.419 24.3206C155.839 25.1063 155.034 25.7253 154.006 26.1777C152.977 26.6063 151.79 26.8206 150.445 26.8206ZM143.957 12.7849C143.957 11.8087 144.221 10.9396 144.749 10.1777C145.302 9.39202 146.067 8.78488 147.043 8.35631C148.019 7.90392 149.1 7.67773 150.287 7.67773V10.4992C149.47 10.4992 148.784 10.7134 148.23 11.142C147.702 11.5706 147.439 12.1182 147.439 12.7849H143.957ZM146.687 20.892C146.819 21.9396 147.241 22.7253 147.953 23.2492C148.665 23.7492 149.496 23.9992 150.445 23.9992V26.8206C149.232 26.8206 148.111 26.5944 147.083 26.142C146.054 25.6896 145.21 25.0587 144.551 24.2492C143.918 23.4396 143.522 22.523 143.364 21.4992L146.687 20.892ZM154.006 13.6063C153.874 12.5349 153.452 11.7492 152.74 11.2492C152.054 10.7492 151.237 10.4992 150.287 10.4992V7.67773C151.527 7.67773 152.648 7.90392 153.65 8.35631C154.652 8.80869 155.483 9.43963 156.142 10.2492C156.801 11.0349 157.21 11.9515 157.369 12.9992L154.006 13.6063Z" fill="white"/>
<path d="M91.5546 27.6367H57.9192V30.3889H91.5546V27.6367Z" fill="white"/>
</g>
<defs>
<clipPath id="clip0_323_28">
<rect width="157.452" height="30" fill="white" transform="translate(0 0.5)"/>
</clipPath>
</defs>
</svg>
